# xmcd
# 
# Track frame offsets:
#     150
#     21000
#     46125
# 
# Disc length: 873
# 
# Revision: 4
# Processed by: cddbd v1.5.2PL0 Copyright (c) Steve Scherf et al.
# Submitted via: BonkEnc v1.0.6
# 
DISCID=18036703
DTITLE=UVERworld - endscape
DYEAR=2007
DGENRE=JPop
TTITLE0=endscape
TTITLE1=UNKNOWN ORCHESTRA
TTITLE2=モノクローム
EXTD=YEAR: 2007
EXTT0=
EXTT1=
EXTT2=
PLAYORDER=
